<svg xmlns="http://www.w3.org/2000/svg" xmlns:xlink="http://www.w3.org/1999/xlink" width="627" zoomAndPan="magnify" viewBox="0 0 470.25 149.999998" height="200" preserveAspectRatio="xMidYMid meet" version="1.0"><defs><g/><clipPath id="3e1b8619a0"><path d="M 0 0.121094 L 469.5 0.121094 L 469.5 149.878906 L 0 149.878906 Z M 0 0.121094 " clip-rule="nonzero"/></clipPath><clipPath id="5f1cd14f1a"><path d="M 234.75 18 L 388.253906 18 L 388.253906 132 L 234.75 132 Z M 234.75 18 " clip-rule="nonzero"/></clipPath></defs><g clip-path="url(#3e1b8619a0)"><path fill="#ffffff" d="M 0 0.121094 L 469.5 0.121094 L 469.5 149.878906 L 0 149.878906 Z M 0 0.121094 " fill-opacity="1" fill-rule="nonzero"/><path fill="#151415" d="M 0 0.121094 L 469.5 0.121094 L 469.5 149.878906 L 0 149.878906 Z M 0 0.121094 " fill-opacity="1" fill-rule="nonzero"/></g><g clip-path="url(#5f1cd14f1a)"><path fill="#ffffff" d="M 386.445312 107.765625 C 385.496094 106.007812 384.265625 104.480469 382.746094 103.179688 C 381.230469 101.882812 379.53125 100.898438 377.652344 100.226562 C 376.210938 100.65625 374.75 101 373.269531 101.261719 C 369.988281 101.894531 366.890625 102.492188 363.949219 105.394531 C 361 108.308594 359.984375 110.996094 358.910156 113.847656 C 358.246094 115.601562 357.5625 117.414062 356.410156 119.222656 C 356.574219 120.121094 356.835938 120.992188 357.195312 121.832031 C 357.773438 123.226562 358.535156 124.511719 359.472656 125.691406 C 360.410156 126.871094 361.492188 127.902344 362.71875 128.78125 C 363.941406 129.65625 365.265625 130.351562 366.683594 130.859375 C 368.105469 131.367188 369.566406 131.671875 371.070312 131.773438 C 372.574219 131.871094 374.066406 131.765625 375.539062 131.449219 C 377.011719 131.132812 378.417969 130.621094 379.746094 129.914062 C 381.078125 129.203125 382.289062 128.328125 383.375 127.28125 C 384.460938 126.238281 385.382812 125.0625 386.140625 123.757812 C 386.328125 123.441406 386.503906 123.121094 386.671875 122.789062 C 387.605469 120.933594 388.164062 118.96875 388.339844 116.894531 C 388.378906 116.4375 388.410156 115.976562 388.410156 115.507812 C 388.414062 112.761719 387.757812 110.179688 386.445312 107.765625 Z M 380.792969 117.789062 C 380.695312 118.144531 380.570312 118.496094 380.425781 118.835938 C 380.285156 119.179688 380.117188 119.507812 379.933594 119.828125 C 379.746094 120.148438 379.542969 120.457031 379.316406 120.753906 C 379.09375 121.046875 378.851562 121.328125 378.59375 121.589844 C 378.332031 121.855469 378.058594 122.101562 377.765625 122.332031 C 377.476562 122.5625 377.171875 122.773438 376.855469 122.964844 C 376.539062 123.15625 376.210938 123.328125 375.871094 123.480469 C 375.535156 123.628906 375.1875 123.757812 374.832031 123.863281 C 374.480469 123.972656 374.117188 124.054688 373.753906 124.117188 C 373.386719 124.179688 373.019531 124.21875 372.648438 124.234375 C 372.28125 124.25 371.910156 124.242188 371.542969 124.210938 C 371.171875 124.179688 370.804688 124.125 370.445312 124.050781 C 370.082031 123.972656 369.726562 123.875 369.375 123.753906 C 369.027344 123.632812 368.683594 123.488281 368.351562 123.324219 C 368.019531 123.160156 367.699219 122.976562 367.390625 122.769531 C 367.082031 122.566406 366.789062 122.34375 366.507812 122.101562 C 366.226562 121.859375 365.960938 121.601562 365.714844 121.328125 C 365.464844 121.050781 365.234375 120.761719 365.023438 120.457031 C 364.8125 120.15625 364.617188 119.839844 364.445312 119.511719 C 364.273438 119.183594 364.121094 118.84375 363.992188 118.5 C 363.863281 118.152344 363.753906 117.796875 363.667969 117.4375 C 363.585938 117.078125 363.523438 116.710938 363.480469 116.34375 C 363.441406 115.976562 363.425781 115.605469 363.433594 115.234375 C 363.4375 114.867188 363.46875 114.496094 363.523438 114.128906 C 363.574219 113.765625 363.652344 113.402344 363.75 113.046875 C 363.847656 112.6875 363.96875 112.339844 364.109375 111.996094 C 364.253906 111.65625 364.414062 111.324219 364.597656 111 C 364.785156 110.679688 364.988281 110.371094 365.210938 110.074219 C 365.433594 109.777344 365.671875 109.5 365.929688 109.230469 C 366.1875 108.964844 366.464844 108.71875 366.753906 108.488281 C 367.042969 108.253906 367.34375 108.042969 367.660156 107.851562 C 367.976562 107.65625 368.304688 107.484375 368.640625 107.332031 C 368.976562 107.179688 369.324219 107.046875 369.679688 106.941406 C 370.03125 106.832031 370.390625 106.746094 370.757812 106.679688 C 371.121094 106.617188 371.488281 106.578125 371.859375 106.558594 C 372.230469 106.542969 372.597656 106.546875 372.96875 106.574219 C 373.335938 106.605469 373.703125 106.65625 374.066406 106.730469 C 374.429688 106.808594 374.785156 106.902344 375.136719 107.023438 C 375.488281 107.144531 375.828125 107.285156 376.160156 107.449219 C 376.496094 107.609375 376.816406 107.792969 377.125 107.996094 C 377.433594 108.199219 377.730469 108.421875 378.011719 108.660156 C 378.296875 108.902344 378.5625 109.15625 378.8125 109.429688 C 379.0625 109.703125 379.292969 109.992188 379.507812 110.296875 C 379.71875 110.597656 379.914062 110.914062 380.085938 111.238281 C 380.261719 111.566406 380.414062 111.902344 380.546875 112.25 C 380.675781 112.597656 380.789062 112.949219 380.875 113.308594 C 380.960938 113.667969 381.027344 114.035156 381.066406 114.402344 C 381.109375 114.769531 381.128906 115.140625 381.125 115.507812 C 381.113281 116.285156 381.003906 117.042969 380.792969 117.789062 Z M 364.988281 102.925781 C 365.894531 102.292969 366.867188 101.777344 367.898438 101.378906 C 368.222656 101.25 368.550781 101.136719 368.878906 101.027344 C 370.1875 100.632812 371.519531 100.320312 372.867188 100.085938 C 373.203125 100.019531 373.539062 99.953125 373.878906 99.886719 C 374.355469 99.792969 374.832031 99.691406 375.3125 99.582031 C 375.515625 99.535156 375.71875 99.492188 375.921875 99.441406 C 376.984375 99.183594 378.019531 98.84375 379.027344 98.417969 C 379.683594 98.136719 380.320312 97.8125 380.929688 97.445312 C 381.191406 97.285156 381.429688 97.132812 381.636719 96.984375 C 382.191406 96.617188 382.683594 96.183594 383.113281 95.675781 C 381.761719 94.675781 380.304688 93.863281 378.738281 93.25 C 378.609375 93.199219 378.480469 93.144531 378.351562 93.09375 C 377.652344 92.824219 376.9375 92.59375 376.214844 92.402344 C 376.078125 92.367188 375.9375 92.332031 375.796875 92.300781 C 375.035156 92.109375 374.265625 91.960938 373.484375 91.859375 C 372.683594 91.761719 371.882812 91.710938 371.074219 91.703125 C 370.921875 91.703125 370.769531 91.695312 370.613281 91.699219 C 369.980469 91.703125 369.34375 91.730469 368.699219 91.792969 C 366.109375 92.050781 363.652344 92.769531 361.328125 93.9375 L 362.664062 92.003906 L 363.316406 91.050781 C 363.953125 90.132812 364.335938 89.117188 364.46875 88.011719 C 364.601562 86.902344 364.46875 85.828125 364.070312 84.785156 L 355.359375 61.945312 L 360.730469 62.796875 C 361.003906 62.84375 361.277344 62.828125 361.546875 62.75 C 361.8125 62.675781 362.054688 62.546875 362.265625 62.367188 C 362.476562 62.183594 362.644531 61.96875 362.757812 61.714844 C 362.875 61.460938 362.933594 61.195312 362.933594 60.914062 L 362.933594 50.886719 C 362.933594 50.609375 362.875 50.34375 362.757812 50.089844 C 362.644531 49.835938 362.476562 49.621094 362.265625 49.4375 C 362.054688 49.257812 361.8125 49.128906 361.546875 49.054688 C 361.277344 48.976562 361.003906 48.960938 360.730469 49.003906 L 348.417969 50.964844 C 348.15625 51.003906 347.910156 51.089844 347.675781 51.222656 C 347.445312 51.351562 347.242188 51.519531 347.070312 51.722656 C 346.894531 51.921875 346.765625 52.148438 346.671875 52.398438 C 346.578125 52.648438 346.535156 52.90625 346.535156 53.171875 L 346.535156 55.023438 C 346.34375 54.984375 346.15625 54.957031 345.964844 54.949219 L 336.152344 54.824219 C 335.457031 54.796875 334.890625 54.515625 334.449219 53.976562 L 325.566406 43.035156 C 320.65625 37.011719 312.269531 38.886719 310.691406 46.496094 L 306.074219 63.855469 C 305.925781 64.5625 305.84375 65.277344 305.828125 66 C 305.8125 66.722656 305.867188 67.4375 305.984375 68.152344 C 306.101562 68.863281 306.285156 69.558594 306.535156 70.238281 C 306.78125 70.917969 307.089844 71.566406 307.457031 72.1875 C 307.828125 72.808594 308.25 73.390625 308.726562 73.933594 C 309.203125 74.476562 309.726562 74.972656 310.296875 75.417969 C 310.867188 75.863281 311.472656 76.253906 312.113281 76.585938 C 312.753906 76.917969 313.421875 77.1875 314.113281 77.398438 L 285.59375 77.398438 C 285.453125 77.398438 285.316406 77.425781 285.1875 77.480469 C 285.058594 77.53125 284.945312 77.609375 284.847656 77.707031 C 284.746094 77.804688 284.671875 77.921875 284.617188 78.050781 C 284.5625 78.179688 284.539062 78.3125 284.539062 78.453125 L 284.539062 82.421875 C 284.539062 82.5625 284.566406 82.695312 284.617188 82.824219 C 284.671875 82.953125 284.75 83.070312 284.847656 83.167969 C 284.945312 83.265625 285.058594 83.34375 285.1875 83.398438 C 285.316406 83.449219 285.453125 83.476562 285.59375 83.476562 L 325.125 83.476562 C 325.265625 83.476562 325.398438 83.449219 325.527344 83.398438 C 325.660156 83.34375 325.773438 83.265625 325.871094 83.167969 C 325.96875 83.070312 326.046875 82.957031 326.101562 82.824219 C 326.152344 82.695312 326.179688 82.5625 326.179688 82.421875 L 326.179688 79.28125 L 331.570312 80.054688 L 327.304688 99.03125 C 327.253906 99.3125 327.234375 99.597656 327.238281 99.882812 C 327.246094 100.167969 327.277344 100.453125 327.339844 100.730469 C 327.398438 101.011719 327.484375 101.28125 327.597656 101.542969 C 327.714844 101.808594 327.851562 102.054688 328.011719 102.292969 C 328.175781 102.527344 328.359375 102.746094 328.5625 102.945312 C 328.765625 103.144531 328.988281 103.324219 329.230469 103.480469 C 329.46875 103.636719 329.71875 103.769531 329.984375 103.878906 C 330.25 103.984375 330.523438 104.066406 330.804688 104.121094 C 331.085938 104.175781 331.367188 104.199219 331.65625 104.199219 C 331.941406 104.199219 332.222656 104.171875 332.503906 104.113281 C 332.785156 104.058594 333.058594 103.976562 333.320312 103.867188 C 333.585938 103.757812 333.839844 103.621094 334.078125 103.464844 C 334.316406 103.304688 334.535156 103.125 334.738281 102.925781 C 334.941406 102.722656 335.125 102.503906 335.285156 102.269531 C 335.445312 102.03125 335.582031 101.78125 335.691406 101.515625 C 335.804688 101.253906 335.890625 100.984375 335.949219 100.703125 L 341.21875 79.761719 C 341.328125 79.257812 341.382812 78.75 341.390625 78.234375 C 341.394531 77.71875 341.351562 77.207031 341.257812 76.703125 C 341.160156 76.195312 341.019531 75.703125 340.824219 75.226562 C 340.632812 74.746094 340.394531 74.292969 340.113281 73.863281 C 339.828125 73.433594 339.507812 73.035156 339.144531 72.667969 C 338.78125 72.300781 338.386719 71.972656 337.960938 71.683594 C 337.535156 71.398438 337.082031 71.152344 336.609375 70.953125 C 336.132812 70.753906 335.644531 70.605469 335.136719 70.503906 C 330.699219 69.613281 325.1875 68.535156 322.316406 67.980469 C 322.0625 67.929688 321.828125 67.832031 321.609375 67.6875 C 321.394531 67.542969 321.214844 67.359375 321.074219 67.140625 C 320.933594 66.921875 320.839844 66.6875 320.792969 66.429688 C 320.75 66.171875 320.753906 65.917969 320.8125 65.664062 L 323.492188 53.761719 L 328.507812 59.703125 C 329.355469 60.75 330.394531 61.550781 331.625 62.109375 C 332.851562 62.667969 334.140625 62.921875 335.488281 62.871094 L 345.964844 62.300781 C 346.503906 62.28125 347.015625 62.144531 347.5 61.898438 L 351.253906 82.804688 C 351.519531 84.28125 351.550781 85.765625 351.347656 87.253906 C 351.144531 88.742188 350.714844 90.160156 350.0625 91.515625 L 344.816406 102.386719 C 344.527344 102.984375 344.160156 103.535156 343.714844 104.027344 C 343.273438 104.523438 342.769531 104.949219 342.207031 105.304688 C 341.640625 105.65625 341.042969 105.925781 340.402344 106.109375 C 339.761719 106.292969 339.109375 106.386719 338.445312 106.386719 L 328.496094 106.386719 C 327.992188 106.386719 327.496094 106.328125 327.003906 106.21875 C 326.515625 106.109375 326.042969 105.945312 325.585938 105.730469 C 325.132812 105.515625 324.703125 105.253906 324.308594 104.945312 C 323.910156 104.636719 323.554688 104.285156 323.234375 103.898438 C 322.914062 103.507812 322.640625 103.089844 322.414062 102.640625 C 322.1875 102.191406 322.011719 101.722656 321.890625 101.234375 C 321.769531 100.746094 321.699219 100.25 321.6875 99.746094 C 321.675781 99.242188 321.71875 98.746094 321.816406 98.25 L 324.433594 85.011719 L 286.761719 85.011719 C 286.234375 85.011719 285.746094 85.148438 285.296875 85.429688 C 284.941406 85.648438 284.46875 85.957031 283.898438 86.34375 C 283.585938 86.5625 283.238281 86.671875 282.855469 86.671875 L 266.753906 86.671875 C 266.496094 86.671875 266.25 86.722656 266.011719 86.820312 C 265.773438 86.921875 265.5625 87.0625 265.378906 87.242188 C 265.195312 87.425781 265.058594 87.636719 264.957031 87.875 C 264.859375 88.113281 264.808594 88.359375 264.808594 88.617188 C 264.808594 88.875 264.859375 89.121094 264.957031 89.359375 C 265.058594 89.597656 265.195312 89.808594 265.378906 89.992188 C 265.5625 90.175781 265.773438 90.3125 266.011719 90.414062 C 266.25 90.511719 266.496094 90.5625 266.753906 90.5625 L 285.144531 90.5625 C 285.402344 90.5625 285.652344 90.609375 285.890625 90.707031 C 286.128906 90.808594 286.339844 90.949219 286.519531 91.128906 C 286.703125 91.3125 286.84375 91.523438 286.941406 91.761719 C 287.039062 92 287.089844 92.246094 287.089844 92.503906 C 287.089844 92.761719 287.039062 93.011719 286.941406 93.25 C 286.84375 93.488281 286.703125 93.695312 286.519531 93.878906 C 286.339844 94.0625 286.128906 94.203125 285.890625 94.300781 C 285.652344 94.398438 285.402344 94.449219 285.144531 94.449219 L 238.785156 94.449219 C 238.527344 94.449219 238.277344 94.496094 238.039062 94.597656 C 237.800781 94.695312 237.59375 94.835938 237.410156 95.019531 C 237.226562 95.199219 237.085938 95.410156 236.988281 95.648438 C 236.890625 95.886719 236.839844 96.132812 236.839844 96.390625 C 236.839844 96.648438 236.890625 96.898438 236.988281 97.136719 C 237.085938 97.375 237.226562 97.585938 237.410156 97.765625 C 237.59375 97.949219 237.800781 98.089844 238.039062 98.1875 C 238.277344 98.285156 238.527344 98.335938 238.785156 98.335938 L 275.910156 98.335938 C 276.171875 98.332031 276.421875 98.378906 276.660156 98.476562 C 276.902344 98.574219 277.113281 98.714844 277.296875 98.898438 C 277.484375 99.082031 277.625 99.292969 277.726562 99.53125 C 277.824219 99.769531 277.875 100.019531 277.875 100.28125 C 277.875 100.539062 277.824219 100.789062 277.726562 101.027344 C 277.625 101.265625 277.484375 101.476562 277.296875 101.660156 C 277.113281 101.84375 276.902344 101.984375 276.660156 102.082031 C 276.421875 102.179688 276.171875 102.226562 275.910156 102.222656 L 252.105469 102.222656 C 251.847656 102.222656 251.597656 102.273438 251.359375 102.371094 C 251.121094 102.46875 250.910156 102.609375 250.730469 102.792969 C 250.546875 102.972656 250.40625 103.183594 250.308594 103.421875 C 250.210938 103.660156 250.160156 103.910156 250.160156 104.167969 C 250.160156 104.425781 250.210938 104.671875 250.308594 104.910156 C 250.40625 105.148438 250.546875 105.359375 250.730469 105.542969 C 250.910156 105.722656 251.121094 105.863281 251.359375 105.960938 C 251.597656 106.0625 251.847656 106.109375 252.105469 106.109375 L 268.175781 106.109375 C 267.003906 109.476562 266.417969 112.941406 266.417969 116.507812 L 272.746094 116.507812 C 272.746094 116.546875 272.738281 116.582031 272.738281 116.621094 C 272.738281 117.054688 272.765625 117.484375 272.800781 117.910156 C 272.949219 119.6875 273.398438 121.386719 274.148438 123.003906 C 274.898438 124.621094 275.90625 126.0625 277.167969 127.320312 C 277.574219 127.730469 278 128.117188 278.449219 128.476562 C 278.898438 128.835938 279.367188 129.171875 279.855469 129.480469 C 280.34375 129.785156 280.847656 130.0625 281.367188 130.3125 C 281.886719 130.5625 282.417969 130.78125 282.964844 130.96875 C 283.507812 131.15625 284.0625 131.3125 284.625 131.4375 C 285.1875 131.5625 285.753906 131.652344 286.328125 131.714844 C 286.902344 131.773438 287.476562 131.796875 288.050781 131.792969 C 288.628906 131.785156 289.203125 131.746094 289.773438 131.671875 C 290.347656 131.601562 290.910156 131.496094 291.472656 131.355469 C 292.03125 131.21875 292.582031 131.050781 293.121094 130.847656 C 293.660156 130.648438 294.1875 130.417969 294.703125 130.15625 C 295.214844 129.894531 295.710938 129.605469 296.191406 129.285156 C 296.671875 128.96875 297.132812 128.625 297.574219 128.253906 C 298.015625 127.882812 298.433594 127.484375 298.828125 127.066406 C 299.222656 126.648438 299.59375 126.207031 299.9375 125.746094 C 300.28125 125.285156 300.601562 124.804688 300.890625 124.304688 C 301.0625 124.011719 301.230469 123.710938 301.382812 123.402344 C 302.257812 121.671875 302.773438 119.839844 302.9375 117.910156 C 302.972656 117.484375 303.003906 117.054688 303.003906 116.621094 C 303.003906 116.582031 302.996094 116.546875 302.996094 116.507812 L 339.929688 116.507812 C 340.828125 116.496094 341.714844 116.382812 342.585938 116.160156 C 343.457031 115.941406 344.289062 115.621094 345.085938 115.203125 C 345.882812 114.785156 346.617188 114.28125 347.292969 113.6875 C 347.96875 113.09375 348.566406 112.433594 349.085938 111.699219 L 349.71875 110.78125 C 349.582031 112.167969 349.582031 113.554688 349.714844 114.941406 C 349.777344 115.546875 349.875 116.140625 349.984375 116.730469 C 350.320312 118.53125 350.875 120.257812 351.65625 121.914062 C 351.917969 121.800781 352.167969 121.667969 352.410156 121.515625 C 352.789062 121.28125 353.152344 121.015625 353.492188 120.726562 C 353.953125 120.332031 354.371094 119.898438 354.75 119.425781 C 354.972656 119.148438 355.179688 118.859375 355.367188 118.558594 C 355.621094 118.167969 355.839844 117.773438 356.050781 117.378906 C 358.238281 113.257812 358.476562 109.066406 363.082031 104.519531 C 363.671875 103.933594 364.308594 103.402344 364.988281 102.925781 Z M 296.214844 116.621094 C 296.207031 117.164062 296.148438 117.699219 296.035156 118.230469 C 295.921875 118.761719 295.761719 119.277344 295.546875 119.777344 C 295.335938 120.277344 295.074219 120.75 294.769531 121.199219 C 294.464844 121.648438 294.117188 122.066406 293.730469 122.445312 C 293.34375 122.828125 292.921875 123.167969 292.46875 123.46875 C 292.015625 123.765625 291.539062 124.019531 291.035156 124.226562 C 290.535156 124.429688 290.015625 124.585938 289.484375 124.691406 C 288.949219 124.796875 288.414062 124.847656 287.871094 124.847656 C 287.328125 124.847656 286.789062 124.796875 286.253906 124.691406 C 285.722656 124.585938 285.207031 124.429688 284.703125 124.226562 C 284.199219 124.019531 283.722656 123.765625 283.269531 123.46875 C 282.816406 123.167969 282.394531 122.828125 282.007812 122.445312 C 281.621094 122.066406 281.277344 121.648438 280.96875 121.199219 C 280.664062 120.75 280.40625 120.277344 280.191406 119.777344 C 279.980469 119.277344 279.816406 118.761719 279.703125 118.230469 C 279.589844 117.699219 279.53125 117.164062 279.523438 116.621094 C 279.523438 116.582031 279.535156 116.546875 279.535156 116.507812 L 296.207031 116.507812 C 296.207031 116.546875 296.214844 116.582031 296.214844 116.621094 Z M 316.015625 34.070312 C 315.808594 32.507812 315.394531 29.230469 315.433594 28.371094 C 315.710938 22.394531 319.886719 17.730469 326.761719 18.050781 C 327.339844 18.074219 327.90625 18.148438 328.46875 18.265625 C 329.035156 18.382812 329.585938 18.542969 330.121094 18.75 C 330.660156 18.953125 331.175781 19.199219 331.675781 19.488281 C 332.175781 19.773438 332.648438 20.101562 333.09375 20.460938 C 333.539062 20.824219 333.957031 21.222656 334.339844 21.648438 C 334.722656 22.078125 335.070312 22.535156 335.382812 23.019531 C 335.691406 23.503906 335.964844 24.007812 336.195312 24.535156 C 336.425781 25.0625 336.613281 25.605469 336.753906 26.164062 L 326.226562 25.671875 C 326.082031 25.667969 325.941406 25.6875 325.804688 25.738281 C 325.667969 25.785156 325.546875 25.859375 325.441406 25.957031 C 325.332031 26.054688 325.25 26.167969 325.1875 26.300781 C 325.125 26.429688 325.09375 26.570312 325.085938 26.714844 L 324.917969 30.277344 C 324.902344 30.617188 324.992188 30.929688 325.1875 31.207031 C 325.378906 31.488281 325.640625 31.683594 325.964844 31.789062 L 336.316406 35.15625 C 335.667969 37.085938 334.726562 38.859375 333.492188 40.480469 C 333.304688 40.730469 333.054688 40.898438 332.753906 40.984375 C 332.449219 41.070312 332.152344 41.054688 331.859375 40.941406 L 316.914062 35.203125 C 316.667969 35.113281 316.46875 34.964844 316.308594 34.761719 C 316.148438 34.558594 316.050781 34.328125 316.015625 34.070312 Z M 255.859375 56.625 L 236.792969 56.625 C 236.515625 56.625 236.253906 56.566406 236 56.457031 C 235.75 56.34375 235.53125 56.1875 235.347656 55.980469 C 235.164062 55.777344 235.027344 55.542969 234.941406 55.28125 C 234.859375 55.019531 234.828125 54.753906 234.855469 54.480469 C 234.957031 53.46875 235.886719 52.734375 236.902344 52.734375 L 260.84375 52.734375 C 261.117188 52.734375 261.382812 52.679688 261.632812 52.566406 C 261.882812 52.457031 262.101562 52.296875 262.285156 52.09375 C 262.46875 51.890625 262.605469 51.65625 262.691406 51.394531 C 262.777344 51.132812 262.804688 50.867188 262.777344 50.59375 C 262.675781 49.582031 261.75 48.847656 260.730469 48.847656 L 241.550781 48.847656 C 241.292969 48.847656 241.046875 48.800781 240.808594 48.699219 C 240.570312 48.601562 240.359375 48.460938 240.175781 48.28125 C 239.996094 48.097656 239.855469 47.886719 239.753906 47.648438 C 239.65625 47.410156 239.609375 47.164062 239.609375 46.90625 C 239.609375 46.648438 239.65625 46.398438 239.753906 46.160156 C 239.855469 45.921875 239.996094 45.714844 240.175781 45.53125 C 240.359375 45.347656 240.570312 45.207031 240.808594 45.109375 C 241.046875 45.011719 241.292969 44.960938 241.550781 44.960938 L 260.84375 44.960938 C 261.117188 44.960938 261.382812 44.90625 261.632812 44.792969 C 261.882812 44.683594 262.101562 44.523438 262.285156 44.320312 C 262.46875 44.113281 262.605469 43.882812 262.691406 43.621094 C 262.777344 43.359375 262.804688 43.089844 262.777344 42.816406 C 262.675781 41.804688 261.75 41.074219 260.730469 41.074219 L 247.328125 41.074219 C 247.054688 41.074219 246.789062 41.019531 246.539062 40.90625 C 246.289062 40.792969 246.070312 40.636719 245.886719 40.433594 C 245.703125 40.226562 245.566406 39.996094 245.480469 39.734375 C 245.394531 39.472656 245.367188 39.203125 245.394531 38.929688 C 245.496094 37.917969 246.421875 37.1875 247.441406 37.1875 L 255.859375 37.1875 L 255.859375 34.953125 C 255.859375 34.699219 255.90625 34.453125 256.003906 34.21875 C 256.101562 33.980469 256.242188 33.773438 256.421875 33.59375 C 256.601562 33.410156 256.8125 33.273438 257.046875 33.175781 C 257.28125 33.078125 257.527344 33.027344 257.785156 33.027344 L 300.792969 33.027344 C 301.046875 33.027344 301.292969 33.078125 301.53125 33.175781 C 301.765625 33.273438 301.972656 33.410156 302.152344 33.59375 C 302.335938 33.773438 302.472656 33.980469 302.570312 34.21875 C 302.667969 34.453125 302.71875 34.699219 302.71875 34.953125 L 302.71875 72.511719 C 302.71875 72.871094 302.648438 73.214844 302.511719 73.542969 C 302.375 73.875 302.183594 74.164062 301.929688 74.417969 C 301.675781 74.671875 301.386719 74.867188 301.054688 75.003906 C 300.726562 75.140625 300.382812 75.207031 300.023438 75.207031 L 257.785156 75.207031 C 257.527344 75.207031 257.28125 75.160156 257.046875 75.0625 C 256.8125 74.964844 256.601562 74.824219 256.421875 74.644531 C 256.242188 74.464844 256.101562 74.253906 256.003906 74.019531 C 255.90625 73.78125 255.859375 73.539062 255.859375 73.28125 L 255.859375 60.511719 L 260.84375 60.511719 C 261.117188 60.511719 261.382812 60.453125 261.632812 60.34375 C 261.882812 60.230469 262.101562 60.074219 262.285156 59.867188 C 262.46875 59.664062 262.605469 59.429688 262.691406 59.167969 C 262.777344 58.90625 262.804688 58.640625 262.777344 58.367188 C 262.675781 57.355469 261.75 56.625 260.730469 56.625 Z M 255.859375 56.625 " fill-opacity="1" fill-rule="nonzero"/></g><g fill="#ffffff" fill-opacity="1"><g transform="translate(19.636689, 55.156647)"><g><path d="M 0.546875 -13.203125 L 0.546875 -16.09375 L 4.03125 -16.09375 L 4.03125 -13.203125 Z M 0.546875 1.0625 L 1.21875 -11.4375 L 3.328125 -11.4375 L 4.03125 1.0625 Z M 0.546875 1.0625 "/></g></g></g><g fill="#ffffff" fill-opacity="1"><g transform="translate(24.167674, 55.156647)"><g><path d="M 4.75 0.15625 C 3.5 0.15625 2.5 -0.234375 1.75 -1.015625 C 1 -1.804688 0.625 -2.882812 0.625 -4.25 L 0.625 -12.15625 C 0.625 -13.863281 0.960938 -15.148438 1.640625 -16.015625 C 2.316406 -16.878906 3.378906 -17.3125 4.828125 -17.3125 C 6.097656 -17.3125 7.117188 -16.960938 7.890625 -16.265625 C 8.660156 -15.578125 9.046875 -14.582031 9.046875 -13.28125 L 9.046875 -10.328125 L 5.625 -10.328125 L 5.625 -12.859375 C 5.625 -13.347656 5.5625 -13.6875 5.4375 -13.875 C 5.320312 -14.0625 5.117188 -14.15625 4.828125 -14.15625 C 4.523438 -14.15625 4.316406 -14.046875 4.203125 -13.828125 C 4.085938 -13.617188 4.03125 -13.3125 4.03125 -12.90625 L 4.03125 -4.296875 C 4.03125 -3.835938 4.097656 -3.503906 4.234375 -3.296875 C 4.367188 -3.097656 4.566406 -3 4.828125 -3 C 5.359375 -3 5.625 -3.429688 5.625 -4.296875 L 5.625 -7.390625 L 9.078125 -7.390625 L 9.078125 -4.15625 C 9.078125 -1.28125 7.632812 0.15625 4.75 0.15625 Z M 4.75 0.15625 "/></g></g></g><g fill="#ffffff" fill-opacity="1"><g transform="translate(33.628842, 55.156647)"><g><path d="M 4.953125 0.15625 C 2.035156 0.15625 0.578125 -1.351562 0.578125 -4.375 L 0.578125 -10.25 C 0.578125 -11.632812 0.96875 -12.734375 1.75 -13.546875 C 2.53125 -14.367188 3.597656 -14.78125 4.953125 -14.78125 C 6.304688 -14.78125 7.375 -14.367188 8.15625 -13.546875 C 8.9375 -12.734375 9.328125 -11.632812 9.328125 -10.25 L 9.328125 -4.375 C 9.328125 -1.351562 7.867188 0.15625 4.953125 0.15625 Z M 4.953125 -2.53125 C 5.234375 -2.53125 5.4375 -2.628906 5.5625 -2.828125 C 5.695312 -3.035156 5.765625 -3.3125 5.765625 -3.65625 L 5.765625 -10.796875 C 5.765625 -11.648438 5.492188 -12.078125 4.953125 -12.078125 C 4.410156 -12.078125 4.140625 -11.648438 4.140625 -10.796875 L 4.140625 -3.65625 C 4.140625 -3.3125 4.203125 -3.035156 4.328125 -2.828125 C 4.460938 -2.628906 4.671875 -2.53125 4.953125 -2.53125 Z M 4.953125 -2.53125 "/></g></g></g><g fill="#ffffff" fill-opacity="1"><g transform="translate(43.5491, 55.156647)"><g><path d="M 0.703125 -14.609375 L 4.1875 -14.609375 L 4.1875 -12.765625 C 4.332031 -13.359375 4.582031 -13.84375 4.9375 -14.21875 C 5.300781 -14.59375 5.785156 -14.78125 6.390625 -14.78125 C 7.378906 -14.78125 8.109375 -14.472656 8.578125 -13.859375 C 9.046875 -13.253906 9.28125 -12.394531 9.28125 -11.28125 L 9.28125 0 L 5.84375 0 L 5.84375 -10.921875 C 5.84375 -11.242188 5.78125 -11.515625 5.65625 -11.734375 C 5.53125 -11.960938 5.335938 -12.078125 5.078125 -12.078125 C 4.710938 -12.078125 4.472656 -11.914062 4.359375 -11.59375 C 4.242188 -11.269531 4.1875 -10.832031 4.1875 -10.28125 L 4.1875 0 L 0.703125 0 Z M 0.703125 -14.609375 "/></g></g></g><g fill="#ffffff" fill-opacity="1"><g transform="translate(53.509281, 55.156647)"><g><path d="M 3.71875 0.15625 C 2.800781 0.15625 2.164062 -0.0351562 1.8125 -0.421875 C 1.46875 -0.804688 1.296875 -1.425781 1.296875 -2.28125 L 1.296875 -11.40625 L 0.3125 -11.40625 L 0.3125 -14.0625 L 1.296875 -14.0625 L 1.296875 -17.15625 L 4.6875 -17.15625 L 4.6875 -14.0625 L 5.6875 -14.0625 L 5.6875 -11.40625 L 4.6875 -11.40625 L 4.6875 -3.1875 C 4.6875 -2.9375 4.707031 -2.75 4.75 -2.625 C 4.789062 -2.507812 4.898438 -2.453125 5.078125 -2.453125 C 5.203125 -2.453125 5.320312 -2.457031 5.4375 -2.46875 C 5.5625 -2.488281 5.644531 -2.5 5.6875 -2.5 L 5.6875 -0.09375 C 5.488281 -0.0390625 5.195312 0.0078125 4.8125 0.0625 C 4.4375 0.125 4.070312 0.15625 3.71875 0.15625 Z M 3.71875 0.15625 "/></g></g></g><g fill="#ffffff" fill-opacity="1"><g transform="translate(59.597167, 55.156647)"><g><path d="M 3.359375 0.15625 C 2.222656 0.15625 1.445312 -0.21875 1.03125 -0.96875 C 0.613281 -1.71875 0.40625 -2.789062 0.40625 -4.1875 C 0.40625 -5.332031 0.550781 -6.210938 0.84375 -6.828125 C 1.144531 -7.441406 1.5625 -7.890625 2.09375 -8.171875 C 2.625 -8.460938 3.4375 -8.78125 4.53125 -9.125 L 5.484375 -9.4375 L 5.484375 -10.9375 C 5.484375 -11.320312 5.40625 -11.617188 5.25 -11.828125 C 5.101562 -12.035156 4.925781 -12.140625 4.71875 -12.140625 C 4.53125 -12.140625 4.363281 -12.050781 4.21875 -11.875 C 4.082031 -11.707031 4.015625 -11.476562 4.015625 -11.1875 L 4.015625 -10.296875 L 0.625 -10.296875 L 0.625 -10.78125 C 0.625 -12.21875 0.957031 -13.242188 1.625 -13.859375 C 2.300781 -14.472656 3.394531 -14.78125 4.90625 -14.78125 C 6.125 -14.78125 7.109375 -14.460938 7.859375 -13.828125 C 8.617188 -13.191406 9 -12.296875 9 -11.140625 L 9 0 L 5.53125 0 L 5.53125 -1.734375 C 5.351562 -1.140625 5.078125 -0.675781 4.703125 -0.34375 C 4.328125 -0.0078125 3.878906 0.15625 3.359375 0.15625 Z M 4.734375 -2.5625 C 4.992188 -2.5625 5.179688 -2.671875 5.296875 -2.890625 C 5.410156 -3.109375 5.46875 -3.375 5.46875 -3.6875 L 5.46875 -7.765625 C 4.945312 -7.566406 4.5625 -7.3125 4.3125 -7 C 4.070312 -6.695312 3.953125 -6.273438 3.953125 -5.734375 L 3.953125 -3.859375 C 3.953125 -2.992188 4.210938 -2.5625 4.734375 -2.5625 Z M 4.734375 -2.5625 "/></g></g></g><g fill="#ffffff" fill-opacity="1"><g transform="translate(69.237983, 55.156647)"><g><path d="M 0.703125 -14.609375 L 4.109375 -14.609375 L 4.109375 -12.921875 C 4.273438 -13.546875 4.550781 -14.007812 4.9375 -14.3125 C 5.320312 -14.625 5.863281 -14.78125 6.5625 -14.78125 C 7.132812 -14.78125 7.628906 -14.648438 8.046875 -14.390625 C 8.472656 -14.128906 8.773438 -13.769531 8.953125 -13.3125 C 9.242188 -13.820312 9.566406 -14.191406 9.921875 -14.421875 C 10.285156 -14.660156 10.785156 -14.78125 11.421875 -14.78125 C 12.566406 -14.78125 13.363281 -14.429688 13.8125 -13.734375 C 14.257812 -13.035156 14.484375 -12.019531 14.484375 -10.6875 L 14.4375 0 L 10.921875 0 L 10.921875 -10.75 C 10.921875 -11.6875 10.679688 -12.15625 10.203125 -12.15625 C 9.867188 -12.15625 9.628906 -11.992188 9.484375 -11.671875 C 9.335938 -11.347656 9.265625 -10.957031 9.265625 -10.5 L 9.265625 0 L 5.765625 0 L 5.765625 -10.75 C 5.765625 -11.15625 5.722656 -11.484375 5.640625 -11.734375 C 5.554688 -11.992188 5.375 -12.125 5.09375 -12.125 C 4.726562 -12.125 4.472656 -11.945312 4.328125 -11.59375 C 4.179688 -11.238281 4.109375 -10.816406 4.109375 -10.328125 L 4.109375 0 L 0.703125 0 Z M 0.703125 -14.609375 "/></g></g></g><g fill="#ffffff" fill-opacity="1"><g transform="translate(84.367878, 55.156647)"><g><path d="M 4.953125 0.15625 C 2.035156 0.15625 0.578125 -1.351562 0.578125 -4.375 L 0.578125 -10.25 C 0.578125 -11.632812 0.96875 -12.734375 1.75 -13.546875 C 2.53125 -14.367188 3.597656 -14.78125 4.953125 -14.78125 C 6.304688 -14.78125 7.375 -14.367188 8.15625 -13.546875 C 8.9375 -12.734375 9.328125 -11.632812 9.328125 -10.25 L 9.328125 -4.375 C 9.328125 -1.351562 7.867188 0.15625 4.953125 0.15625 Z M 4.953125 -2.53125 C 5.234375 -2.53125 5.4375 -2.628906 5.5625 -2.828125 C 5.695312 -3.035156 5.765625 -3.3125 5.765625 -3.65625 L 5.765625 -10.796875 C 5.765625 -11.648438 5.492188 -12.078125 4.953125 -12.078125 C 4.410156 -12.078125 4.140625 -11.648438 4.140625 -10.796875 L 4.140625 -3.65625 C 4.140625 -3.3125 4.203125 -3.035156 4.328125 -2.828125 C 4.460938 -2.628906 4.671875 -2.53125 4.953125 -2.53125 Z M 4.953125 -2.53125 "/></g></g></g><g fill="#ffffff" fill-opacity="1"><g transform="translate(94.288136, 55.156647)"><g><path d="M 4.71875 0.15625 C 1.820312 0.15625 0.375 -1.304688 0.375 -4.234375 L 0.40625 -5.390625 L 3.890625 -5.390625 L 3.90625 -3.671875 C 3.90625 -3.328125 3.972656 -3.0625 4.109375 -2.875 C 4.242188 -2.695312 4.460938 -2.609375 4.765625 -2.609375 C 5.234375 -2.609375 5.46875 -2.988281 5.46875 -3.75 C 5.46875 -4.3125 5.359375 -4.75 5.140625 -5.0625 C 4.921875 -5.382812 4.570312 -5.726562 4.09375 -6.09375 L 2.234375 -7.53125 C 1.597656 -8.019531 1.140625 -8.523438 0.859375 -9.046875 C 0.578125 -9.578125 0.4375 -10.320312 0.4375 -11.28125 C 0.4375 -12.03125 0.632812 -12.664062 1.03125 -13.1875 C 1.425781 -13.71875 1.945312 -14.113281 2.59375 -14.375 C 3.25 -14.644531 3.972656 -14.78125 4.765625 -14.78125 C 7.609375 -14.78125 9.03125 -13.367188 9.03125 -10.546875 L 9.03125 -10.265625 L 5.40625 -10.265625 L 5.40625 -10.828125 C 5.40625 -11.171875 5.347656 -11.460938 5.234375 -11.703125 C 5.128906 -11.953125 4.941406 -12.078125 4.671875 -12.078125 C 4.429688 -12.078125 4.25 -12.003906 4.125 -11.859375 C 4 -11.722656 3.9375 -11.535156 3.9375 -11.296875 C 3.9375 -10.765625 4.140625 -10.351562 4.546875 -10.0625 L 6.703125 -8.484375 C 7.484375 -7.910156 8.078125 -7.285156 8.484375 -6.609375 C 8.898438 -5.941406 9.109375 -5.097656 9.109375 -4.078125 C 9.109375 -2.710938 8.722656 -1.664062 7.953125 -0.9375 C 7.179688 -0.207031 6.101562 0.15625 4.71875 0.15625 Z M 4.71875 0.15625 "/></g></g></g><g fill="#ffffff" fill-opacity="1"><g transform="translate(103.769265, 55.156647)"><g/></g></g><g fill="#ffffff" fill-opacity="1"><g transform="translate(108.439965, 55.156647)"><g><path d="M 5.09375 0.15625 C 3.5 0.15625 2.347656 -0.25 1.640625 -1.0625 C 0.929688 -1.875 0.578125 -3.117188 0.578125 -4.796875 L 0.578125 -9.3125 C 0.578125 -10.570312 0.710938 -11.597656 0.984375 -12.390625 C 1.253906 -13.179688 1.710938 -13.773438 2.359375 -14.171875 C 3.003906 -14.578125 3.898438 -14.78125 5.046875 -14.78125 C 6.296875 -14.78125 7.3125 -14.453125 8.09375 -13.796875 C 8.882812 -13.140625 9.28125 -12.226562 9.28125 -11.0625 L 9.28125 -8.828125 L 5.734375 -8.828125 L 5.734375 -10.890625 C 5.734375 -11.273438 5.675781 -11.566406 5.5625 -11.765625 C 5.457031 -11.972656 5.253906 -12.078125 4.953125 -12.078125 C 4.378906 -12.078125 4.09375 -11.671875 4.09375 -10.859375 L 4.09375 -3.78125 C 4.09375 -3.445312 4.160156 -3.160156 4.296875 -2.921875 C 4.441406 -2.691406 4.65625 -2.578125 4.9375 -2.578125 C 5.21875 -2.578125 5.425781 -2.6875 5.5625 -2.90625 C 5.695312 -3.132812 5.757812 -3.429688 5.75 -3.796875 L 5.734375 -6.25 L 9.28125 -6.25 L 9.28125 -3.6875 C 9.28125 -2.488281 8.890625 -1.546875 8.109375 -0.859375 C 7.335938 -0.179688 6.332031 0.15625 5.09375 0.15625 Z M 5.09375 0.15625 "/></g></g></g><g fill="#ffffff" fill-opacity="1"><g transform="translate(118.240458, 55.156647)"><g><path d="M 4.953125 0.15625 C 2.035156 0.15625 0.578125 -1.351562 0.578125 -4.375 L 0.578125 -10.25 C 0.578125 -11.632812 0.96875 -12.734375 1.75 -13.546875 C 2.53125 -14.367188 3.597656 -14.78125 4.953125 -14.78125 C 6.304688 -14.78125 7.375 -14.367188 8.15625 -13.546875 C 8.9375 -12.734375 9.328125 -11.632812 9.328125 -10.25 L 9.328125 -4.375 C 9.328125 -1.351562 7.867188 0.15625 4.953125 0.15625 Z M 4.953125 -2.53125 C 5.234375 -2.53125 5.4375 -2.628906 5.5625 -2.828125 C 5.695312 -3.035156 5.765625 -3.3125 5.765625 -3.65625 L 5.765625 -10.796875 C 5.765625 -11.648438 5.492188 -12.078125 4.953125 -12.078125 C 4.410156 -12.078125 4.140625 -11.648438 4.140625 -10.796875 L 4.140625 -3.65625 C 4.140625 -3.3125 4.203125 -3.035156 4.328125 -2.828125 C 4.460938 -2.628906 4.671875 -2.53125 4.953125 -2.53125 Z M 4.953125 -2.53125 "/></g></g></g><g fill="#ffffff" fill-opacity="1"><g transform="translate(128.160717, 55.156647)"><g><path d="M 0.703125 -14.609375 L 4.1875 -14.609375 L 4.1875 -12.765625 C 4.332031 -13.359375 4.582031 -13.84375 4.9375 -14.21875 C 5.300781 -14.59375 5.785156 -14.78125 6.390625 -14.78125 C 7.378906 -14.78125 8.109375 -14.472656 8.578125 -13.859375 C 9.046875 -13.253906 9.28125 -12.394531 9.28125 -11.28125 L 9.28125 0 L 5.84375 0 L 5.84375 -10.921875 C 5.84375 -11.242188 5.78125 -11.515625 5.65625 -11.734375 C 5.53125 -11.960938 5.335938 -12.078125 5.078125 -12.078125 C 4.710938 -12.078125 4.472656 -11.914062 4.359375 -11.59375 C 4.242188 -11.269531 4.1875 -10.832031 4.1875 -10.28125 L 4.1875 0 L 0.703125 0 Z M 0.703125 -14.609375 "/></g></g></g><g fill="#ffffff" fill-opacity="1"><g transform="translate(39.48004, 82.862457)"><g><path d="M 3.578125 0.15625 C 2.722656 0.15625 2.078125 -0.046875 1.640625 -0.453125 C 1.210938 -0.859375 0.925781 -1.394531 0.78125 -2.0625 C 0.644531 -2.738281 0.578125 -3.601562 0.578125 -4.65625 L 0.625 -11.25 C 0.625 -12.28125 0.882812 -13.125 1.40625 -13.78125 C 1.9375 -14.445312 2.679688 -14.78125 3.640625 -14.78125 C 4.578125 -14.78125 5.28125 -14.46875 5.75 -13.84375 L 5.75 -17.25 L 9.25 -17.25 L 9.25 0 L 5.75 0 L 5.75 -1.5625 C 5.550781 -0.988281 5.28125 -0.554688 4.9375 -0.265625 C 4.601562 0.015625 4.148438 0.15625 3.578125 0.15625 Z M 4.90625 -2.578125 C 5.257812 -2.578125 5.488281 -2.742188 5.59375 -3.078125 C 5.695312 -3.421875 5.75 -3.878906 5.75 -4.453125 L 5.75 -10.5625 C 5.75 -10.988281 5.6875 -11.347656 5.5625 -11.640625 C 5.445312 -11.929688 5.238281 -12.078125 4.9375 -12.078125 C 4.582031 -12.078125 4.347656 -11.941406 4.234375 -11.671875 C 4.128906 -11.398438 4.078125 -11.03125 4.078125 -10.5625 L 4.078125 -4.40625 C 4.078125 -3.1875 4.351562 -2.578125 4.90625 -2.578125 Z M 4.90625 -2.578125 "/></g></g></g><g fill="#ffffff" fill-opacity="1"><g transform="translate(49.42026, 82.862457)"><g><path d="M 4.796875 0.15625 C 3.285156 0.15625 2.203125 -0.253906 1.546875 -1.078125 C 0.898438 -1.898438 0.578125 -3.128906 0.578125 -4.765625 L 0.578125 -10.640625 C 0.578125 -11.984375 0.960938 -13.007812 1.734375 -13.71875 C 2.503906 -14.425781 3.582031 -14.78125 4.96875 -14.78125 C 7.78125 -14.78125 9.1875 -13.398438 9.1875 -10.640625 L 9.1875 -9.578125 C 9.1875 -8.515625 9.171875 -7.648438 9.140625 -6.984375 L 4.078125 -6.984375 L 4.078125 -4.15625 C 4.078125 -3.644531 4.128906 -3.242188 4.234375 -2.953125 C 4.335938 -2.671875 4.5625 -2.53125 4.90625 -2.53125 C 5.175781 -2.53125 5.367188 -2.609375 5.484375 -2.765625 C 5.597656 -2.929688 5.664062 -3.117188 5.6875 -3.328125 C 5.707031 -3.535156 5.71875 -3.835938 5.71875 -4.234375 L 5.71875 -5.65625 L 9.1875 -5.65625 L 9.1875 -4.8125 C 9.1875 -3.101562 8.851562 -1.847656 8.1875 -1.046875 C 7.53125 -0.242188 6.398438 0.15625 4.796875 0.15625 Z M 5.71875 -8.71875 L 5.71875 -10.609375 C 5.71875 -11.660156 5.457031 -12.1875 4.9375 -12.1875 C 4.34375 -12.1875 4.046875 -11.660156 4.046875 -10.609375 L 4.046875 -8.71875 Z M 5.71875 -8.71875 "/></g></g></g><g fill="#ffffff" fill-opacity="1"><g transform="translate(59.160881, 82.862457)"><g><path d="M 0.703125 0 L 0.703125 -17.25 L 4.25 -17.25 L 4.25 0 Z M 0.703125 0 "/></g></g></g><g fill="#ffffff" fill-opacity="1"><g transform="translate(64.111036, 82.862457)"><g><path d="M 0.671875 -15.59375 L 0.671875 -18.03125 L 4.171875 -18.03125 L 4.171875 -15.59375 Z M 0.671875 0 L 0.671875 -14.609375 L 4.171875 -14.609375 L 4.171875 0 Z M 0.671875 0 "/></g></g></g><g fill="#ffffff" fill-opacity="1"><g transform="translate(68.961385, 82.862457)"><g><path d="M 2.5625 0 L 0.21875 -14.609375 L 3.71875 -14.609375 L 4.4375 -7.234375 L 4.546875 -4.859375 L 4.6875 -7.25 L 5.484375 -14.609375 L 8.984375 -14.609375 L 6.609375 0 Z M 2.5625 0 "/></g></g></g><g fill="#ffffff" fill-opacity="1"><g transform="translate(78.163071, 82.862457)"><g><path d="M 4.796875 0.15625 C 3.285156 0.15625 2.203125 -0.253906 1.546875 -1.078125 C 0.898438 -1.898438 0.578125 -3.128906 0.578125 -4.765625 L 0.578125 -10.640625 C 0.578125 -11.984375 0.960938 -13.007812 1.734375 -13.71875 C 2.503906 -14.425781 3.582031 -14.78125 4.96875 -14.78125 C 7.78125 -14.78125 9.1875 -13.398438 9.1875 -10.640625 L 9.1875 -9.578125 C 9.1875 -8.515625 9.171875 -7.648438 9.140625 -6.984375 L 4.078125 -6.984375 L 4.078125 -4.15625 C 4.078125 -3.644531 4.128906 -3.242188 4.234375 -2.953125 C 4.335938 -2.671875 4.5625 -2.53125 4.90625 -2.53125 C 5.175781 -2.53125 5.367188 -2.609375 5.484375 -2.765625 C 5.597656 -2.929688 5.664062 -3.117188 5.6875 -3.328125 C 5.707031 -3.535156 5.71875 -3.835938 5.71875 -4.234375 L 5.71875 -5.65625 L 9.1875 -5.65625 L 9.1875 -4.8125 C 9.1875 -3.101562 8.851562 -1.847656 8.1875 -1.046875 C 7.53125 -0.242188 6.398438 0.15625 4.796875 0.15625 Z M 5.71875 -8.71875 L 5.71875 -10.609375 C 5.71875 -11.660156 5.457031 -12.1875 4.9375 -12.1875 C 4.34375 -12.1875 4.046875 -11.660156 4.046875 -10.609375 L 4.046875 -8.71875 Z M 5.71875 -8.71875 "/></g></g></g><g fill="#ffffff" fill-opacity="1"><g transform="translate(87.903692, 82.862457)"><g><path d="M 0.703125 -14.609375 L 4.1875 -14.609375 L 4.1875 -13 C 4.363281 -13.570312 4.664062 -14.015625 5.09375 -14.328125 C 5.53125 -14.640625 6.066406 -14.796875 6.703125 -14.796875 L 6.703125 -11.875 C 6.210938 -11.875 5.671875 -11.804688 5.078125 -11.671875 C 4.484375 -11.535156 4.1875 -11.375 4.1875 -11.1875 L 4.1875 0 L 0.703125 0 Z M 0.703125 -14.609375 "/></g></g></g><g fill="#ffffff" fill-opacity="1"><g transform="translate(94.770034, 82.862457)"><g><path d="M 0.421875 0.21875 L 2.09375 0.21875 C 2.332031 0.21875 2.453125 0.117188 2.453125 -0.078125 C 2.453125 -0.171875 2.445312 -0.242188 2.4375 -0.296875 L 0.15625 -14.609375 L 3.5 -14.609375 L 4.15625 -7.484375 L 4.46875 -3.859375 L 4.859375 -7.484375 L 5.625 -14.609375 L 8.984375 -14.609375 L 6.265625 0.765625 C 6.171875 1.335938 5.976562 1.757812 5.6875 2.03125 C 5.40625 2.300781 4.960938 2.4375 4.359375 2.4375 L 0.421875 2.4375 Z M 0.421875 0.21875 "/></g></g></g><g fill="#ffffff" fill-opacity="1"><g transform="translate(103.97172, 82.862457)"><g/></g></g><g fill="#ffffff" fill-opacity="1"><g transform="translate(108.64242, 82.862457)"><g><path d="M 3.359375 0.15625 C 2.222656 0.15625 1.445312 -0.21875 1.03125 -0.96875 C 0.613281 -1.71875 0.40625 -2.789062 0.40625 -4.1875 C 0.40625 -5.332031 0.550781 -6.210938 0.84375 -6.828125 C 1.144531 -7.441406 1.5625 -7.890625 2.09375 -8.171875 C 2.625 -8.460938 3.4375 -8.78125 4.53125 -9.125 L 5.484375 -9.4375 L 5.484375 -10.9375 C 5.484375 -11.320312 5.40625 -11.617188 5.25 -11.828125 C 5.101562 -12.035156 4.925781 -12.140625 4.71875 -12.140625 C 4.53125 -12.140625 4.363281 -12.050781 4.21875 -11.875 C 4.082031 -11.707031 4.015625 -11.476562 4.015625 -11.1875 L 4.015625 -10.296875 L 0.625 -10.296875 L 0.625 -10.78125 C 0.625 -12.21875 0.957031 -13.242188 1.625 -13.859375 C 2.300781 -14.472656 3.394531 -14.78125 4.90625 -14.78125 C 6.125 -14.78125 7.109375 -14.460938 7.859375 -13.828125 C 8.617188 -13.191406 9 -12.296875 9 -11.140625 L 9 0 L 5.53125 0 L 5.53125 -1.734375 C 5.351562 -1.140625 5.078125 -0.675781 4.703125 -0.34375 C 4.328125 -0.0078125 3.878906 0.15625 3.359375 0.15625 Z M 4.734375 -2.5625 C 4.992188 -2.5625 5.179688 -2.671875 5.296875 -2.890625 C 5.410156 -3.109375 5.46875 -3.375 5.46875 -3.6875 L 5.46875 -7.765625 C 4.945312 -7.566406 4.5625 -7.3125 4.3125 -7 C 4.070312 -6.695312 3.953125 -6.273438 3.953125 -5.734375 L 3.953125 -3.859375 C 3.953125 -2.992188 4.210938 -2.5625 4.734375 -2.5625 Z M 4.734375 -2.5625 "/></g></g></g><g fill="#ffffff" fill-opacity="1"><g transform="translate(19.250586, 110.568268)"><g><path d="M 3.578125 0.15625 C 2.722656 0.15625 2.078125 -0.046875 1.640625 -0.453125 C 1.210938 -0.859375 0.925781 -1.394531 0.78125 -2.0625 C 0.644531 -2.738281 0.578125 -3.601562 0.578125 -4.65625 L 0.625 -11.25 C 0.625 -12.28125 0.882812 -13.125 1.40625 -13.78125 C 1.9375 -14.445312 2.679688 -14.78125 3.640625 -14.78125 C 4.578125 -14.78125 5.28125 -14.46875 5.75 -13.84375 L 5.75 -17.25 L 9.25 -17.25 L 9.25 0 L 5.75 0 L 5.75 -1.5625 C 5.550781 -0.988281 5.28125 -0.554688 4.9375 -0.265625 C 4.601562 0.015625 4.148438 0.15625 3.578125 0.15625 Z M 4.90625 -2.578125 C 5.257812 -2.578125 5.488281 -2.742188 5.59375 -3.078125 C 5.695312 -3.421875 5.75 -3.878906 5.75 -4.453125 L 5.75 -10.5625 C 5.75 -10.988281 5.6875 -11.347656 5.5625 -11.640625 C 5.445312 -11.929688 5.238281 -12.078125 4.9375 -12.078125 C 4.582031 -12.078125 4.347656 -11.941406 4.234375 -11.671875 C 4.128906 -11.398438 4.078125 -11.03125 4.078125 -10.5625 L 4.078125 -4.40625 C 4.078125 -3.1875 4.351562 -2.578125 4.90625 -2.578125 Z M 4.90625 -2.578125 "/></g></g></g><g fill="#ffffff" fill-opacity="1"><g transform="translate(29.190806, 110.568268)"><g><path d="M 4.953125 0.15625 C 2.035156 0.15625 0.578125 -1.351562 0.578125 -4.375 L 0.578125 -10.25 C 0.578125 -11.632812 0.96875 -12.734375 1.75 -13.546875 C 2.53125 -14.367188 3.597656 -14.78125 4.953125 -14.78125 C 6.304688 -14.78125 7.375 -14.367188 8.15625 -13.546875 C 8.9375 -12.734375 9.328125 -11.632812 9.328125 -10.25 L 9.328125 -4.375 C 9.328125 -1.351562 7.867188 0.15625 4.953125 0.15625 Z M 4.953125 -2.53125 C 5.234375 -2.53125 5.4375 -2.628906 5.5625 -2.828125 C 5.695312 -3.035156 5.765625 -3.3125 5.765625 -3.65625 L 5.765625 -10.796875 C 5.765625 -11.648438 5.492188 -12.078125 4.953125 -12.078125 C 4.410156 -12.078125 4.140625 -11.648438 4.140625 -10.796875 L 4.140625 -3.65625 C 4.140625 -3.3125 4.203125 -3.035156 4.328125 -2.828125 C 4.460938 -2.628906 4.671875 -2.53125 4.953125 -2.53125 Z M 4.953125 -2.53125 "/></g></g></g><g fill="#ffffff" fill-opacity="1"><g transform="translate(39.111065, 110.568268)"><g><path d="M 0.703125 -14.609375 L 4.1875 -14.609375 L 4.1875 -12.765625 C 4.332031 -13.359375 4.582031 -13.84375 4.9375 -14.21875 C 5.300781 -14.59375 5.785156 -14.78125 6.390625 -14.78125 C 7.378906 -14.78125 8.109375 -14.472656 8.578125 -13.859375 C 9.046875 -13.253906 9.28125 -12.394531 9.28125 -11.28125 L 9.28125 0 L 5.84375 0 L 5.84375 -10.921875 C 5.84375 -11.242188 5.78125 -11.515625 5.65625 -11.734375 C 5.53125 -11.960938 5.335938 -12.078125 5.078125 -12.078125 C 4.710938 -12.078125 4.472656 -11.914062 4.359375 -11.59375 C 4.242188 -11.269531 4.1875 -10.832031 4.1875 -10.28125 L 4.1875 0 L 0.703125 0 Z M 0.703125 -14.609375 "/></g></g></g><g fill="#ffffff" fill-opacity="1"><g transform="translate(49.071245, 110.568268)"><g><path d="M 3.578125 0.15625 C 2.722656 0.15625 2.078125 -0.046875 1.640625 -0.453125 C 1.210938 -0.859375 0.925781 -1.394531 0.78125 -2.0625 C 0.644531 -2.738281 0.578125 -3.601562 0.578125 -4.65625 L 0.625 -11.25 C 0.625 -12.28125 0.882812 -13.125 1.40625 -13.78125 C 1.9375 -14.445312 2.679688 -14.78125 3.640625 -14.78125 C 4.578125 -14.78125 5.28125 -14.46875 5.75 -13.84375 L 5.75 -17.25 L 9.25 -17.25 L 9.25 0 L 5.75 0 L 5.75 -1.5625 C 5.550781 -0.988281 5.28125 -0.554688 4.9375 -0.265625 C 4.601562 0.015625 4.148438 0.15625 3.578125 0.15625 Z M 4.90625 -2.578125 C 5.257812 -2.578125 5.488281 -2.742188 5.59375 -3.078125 C 5.695312 -3.421875 5.75 -3.878906 5.75 -4.453125 L 5.75 -10.5625 C 5.75 -10.988281 5.6875 -11.347656 5.5625 -11.640625 C 5.445312 -11.929688 5.238281 -12.078125 4.9375 -12.078125 C 4.582031 -12.078125 4.347656 -11.941406 4.234375 -11.671875 C 4.128906 -11.398438 4.078125 -11.03125 4.078125 -10.5625 L 4.078125 -4.40625 C 4.078125 -3.1875 4.351562 -2.578125 4.90625 -2.578125 Z M 4.90625 -2.578125 "/></g></g></g><g fill="#ffffff" fill-opacity="1"><g transform="translate(59.011465, 110.568268)"><g><path d="M 4.796875 0.15625 C 3.285156 0.15625 2.203125 -0.253906 1.546875 -1.078125 C 0.898438 -1.898438 0.578125 -3.128906 0.578125 -4.765625 L 0.578125 -10.640625 C 0.578125 -11.984375 0.960938 -13.007812 1.734375 -13.71875 C 2.503906 -14.425781 3.582031 -14.78125 4.96875 -14.78125 C 7.78125 -14.78125 9.1875 -13.398438 9.1875 -10.640625 L 9.1875 -9.578125 C 9.1875 -8.515625 9.171875 -7.648438 9.140625 -6.984375 L 4.078125 -6.984375 L 4.078125 -4.15625 C 4.078125 -3.644531 4.128906 -3.242188 4.234375 -2.953125 C 4.335938 -2.671875 4.5625 -2.53125 4.90625 -2.53125 C 5.175781 -2.53125 5.367188 -2.609375 5.484375 -2.765625 C 5.597656 -2.929688 5.664062 -3.117188 5.6875 -3.328125 C 5.707031 -3.535156 5.71875 -3.835938 5.71875 -4.234375 L 5.71875 -5.65625 L 9.1875 -5.65625 L 9.1875 -4.8125 C 9.1875 -3.101562 8.851562 -1.847656 8.1875 -1.046875 C 7.53125 -0.242188 6.398438 0.15625 4.796875 0.15625 Z M 5.71875 -8.71875 L 5.71875 -10.609375 C 5.71875 -11.660156 5.457031 -12.1875 4.9375 -12.1875 C 4.34375 -12.1875 4.046875 -11.660156 4.046875 -10.609375 L 4.046875 -8.71875 Z M 5.71875 -8.71875 "/></g></g></g><g fill="#ffffff" fill-opacity="1"><g transform="translate(68.752086, 110.568268)"><g/></g></g><g fill="#ffffff" fill-opacity="1"><g transform="translate(73.422787, 110.568268)"><g><path d="M 5.71875 -0.875 C 5.488281 -0.570312 5.203125 -0.320312 4.859375 -0.125 C 4.523438 0.0625 4.144531 0.15625 3.71875 0.15625 C 2.8125 0.15625 2.128906 -0.0351562 1.671875 -0.421875 C 1.222656 -0.816406 0.925781 -1.347656 0.78125 -2.015625 C 0.644531 -2.691406 0.578125 -3.582031 0.578125 -4.6875 L 0.578125 -10.484375 C 0.578125 -11.828125 0.800781 -12.878906 1.25 -13.640625 C 1.707031 -14.398438 2.492188 -14.78125 3.609375 -14.78125 C 4.503906 -14.78125 5.207031 -14.46875 5.71875 -13.84375 L 5.71875 -14.609375 L 9.265625 -14.609375 L 9.265625 2.921875 L 5.71875 2.921875 Z M 4.875 -2.5625 C 5.207031 -2.5625 5.429688 -2.695312 5.546875 -2.96875 C 5.660156 -3.238281 5.71875 -3.617188 5.71875 -4.109375 L 5.71875 -10.53125 C 5.71875 -11.539062 5.441406 -12.046875 4.890625 -12.046875 C 4.554688 -12.046875 4.34375 -11.90625 4.25 -11.625 C 4.15625 -11.351562 4.109375 -10.972656 4.109375 -10.484375 L 4.109375 -4.265625 C 4.109375 -3.710938 4.15625 -3.289062 4.25 -3 C 4.34375 -2.707031 4.550781 -2.5625 4.875 -2.5625 Z M 4.875 -2.5625 "/></g></g></g><g fill="#ffffff" fill-opacity="1"><g transform="translate(83.402929, 110.568268)"><g><path d="M 3.515625 0.15625 C 2.421875 0.15625 1.671875 -0.164062 1.265625 -0.8125 C 0.859375 -1.46875 0.65625 -2.441406 0.65625 -3.734375 L 0.65625 -14.609375 L 4.171875 -14.609375 L 4.171875 -4.4375 C 4.171875 -4.34375 4.171875 -4.09375 4.171875 -3.6875 C 4.171875 -3.28125 4.234375 -2.992188 4.359375 -2.828125 C 4.484375 -2.660156 4.679688 -2.578125 4.953125 -2.578125 C 5.304688 -2.578125 5.53125 -2.722656 5.625 -3.015625 C 5.71875 -3.316406 5.765625 -3.75 5.765625 -4.3125 L 5.765625 -4.4375 L 5.796875 -14.609375 L 9.265625 -14.609375 L 9.265625 0 L 5.765625 0 L 5.765625 -1.5625 C 5.523438 -0.945312 5.242188 -0.503906 4.921875 -0.234375 C 4.609375 0.0234375 4.140625 0.15625 3.515625 0.15625 Z M 3.515625 0.15625 "/></g></g></g><g fill="#ffffff" fill-opacity="1"><g transform="translate(93.363109, 110.568268)"><g><path d="M 0.671875 -15.59375 L 0.671875 -18.03125 L 4.171875 -18.03125 L 4.171875 -15.59375 Z M 0.671875 0 L 0.671875 -14.609375 L 4.171875 -14.609375 L 4.171875 0 Z M 0.671875 0 "/></g></g></g><g fill="#ffffff" fill-opacity="1"><g transform="translate(98.213459, 110.568268)"><g><path d="M 4.796875 0.15625 C 3.285156 0.15625 2.203125 -0.253906 1.546875 -1.078125 C 0.898438 -1.898438 0.578125 -3.128906 0.578125 -4.765625 L 0.578125 -10.640625 C 0.578125 -11.984375 0.960938 -13.007812 1.734375 -13.71875 C 2.503906 -14.425781 3.582031 -14.78125 4.96875 -14.78125 C 7.78125 -14.78125 9.1875 -13.398438 9.1875 -10.640625 L 9.1875 -9.578125 C 9.1875 -8.515625 9.171875 -7.648438 9.140625 -6.984375 L 4.078125 -6.984375 L 4.078125 -4.15625 C 4.078125 -3.644531 4.128906 -3.242188 4.234375 -2.953125 C 4.335938 -2.671875 4.5625 -2.53125 4.90625 -2.53125 C 5.175781 -2.53125 5.367188 -2.609375 5.484375 -2.765625 C 5.597656 -2.929688 5.664062 -3.117188 5.6875 -3.328125 C 5.707031 -3.535156 5.71875 -3.835938 5.71875 -4.234375 L 5.71875 -5.65625 L 9.1875 -5.65625 L 9.1875 -4.8125 C 9.1875 -3.101562 8.851562 -1.847656 8.1875 -1.046875 C 7.53125 -0.242188 6.398438 0.15625 4.796875 0.15625 Z M 5.71875 -8.71875 L 5.71875 -10.609375 C 5.71875 -11.660156 5.457031 -12.1875 4.9375 -12.1875 C 4.34375 -12.1875 4.046875 -11.660156 4.046875 -10.609375 L 4.046875 -8.71875 Z M 5.71875 -8.71875 "/></g></g></g><g fill="#ffffff" fill-opacity="1"><g transform="translate(107.95408, 110.568268)"><g><path d="M 0.703125 -14.609375 L 4.1875 -14.609375 L 4.1875 -13 C 4.363281 -13.570312 4.664062 -14.015625 5.09375 -14.328125 C 5.53125 -14.640625 6.066406 -14.796875 6.703125 -14.796875 L 6.703125 -11.875 C 6.210938 -11.875 5.671875 -11.804688 5.078125 -11.671875 C 4.484375 -11.535156 4.1875 -11.375 4.1875 -11.1875 L 4.1875 0 L 0.703125 0 Z M 0.703125 -14.609375 "/></g></g></g><g fill="#ffffff" fill-opacity="1"><g transform="translate(114.820421, 110.568268)"><g><path d="M 3.359375 0.15625 C 2.222656 0.15625 1.445312 -0.21875 1.03125 -0.96875 C 0.613281 -1.71875 0.40625 -2.789062 0.40625 -4.1875 C 0.40625 -5.332031 0.550781 -6.210938 0.84375 -6.828125 C 1.144531 -7.441406 1.5625 -7.890625 2.09375 -8.171875 C 2.625 -8.460938 3.4375 -8.78125 4.53125 -9.125 L 5.484375 -9.4375 L 5.484375 -10.9375 C 5.484375 -11.320312 5.40625 -11.617188 5.25 -11.828125 C 5.101562 -12.035156 4.925781 -12.140625 4.71875 -12.140625 C 4.53125 -12.140625 4.363281 -12.050781 4.21875 -11.875 C 4.082031 -11.707031 4.015625 -11.476562 4.015625 -11.1875 L 4.015625 -10.296875 L 0.625 -10.296875 L 0.625 -10.78125 C 0.625 -12.21875 0.957031 -13.242188 1.625 -13.859375 C 2.300781 -14.472656 3.394531 -14.78125 4.90625 -14.78125 C 6.125 -14.78125 7.109375 -14.460938 7.859375 -13.828125 C 8.617188 -13.191406 9 -12.296875 9 -11.140625 L 9 0 L 5.53125 0 L 5.53125 -1.734375 C 5.351562 -1.140625 5.078125 -0.675781 4.703125 -0.34375 C 4.328125 -0.0078125 3.878906 0.15625 3.359375 0.15625 Z M 4.734375 -2.5625 C 4.992188 -2.5625 5.179688 -2.671875 5.296875 -2.890625 C 5.410156 -3.109375 5.46875 -3.375 5.46875 -3.6875 L 5.46875 -7.765625 C 4.945312 -7.566406 4.5625 -7.3125 4.3125 -7 C 4.070312 -6.695312 3.953125 -6.273438 3.953125 -5.734375 L 3.953125 -3.859375 C 3.953125 -2.992188 4.210938 -2.5625 4.734375 -2.5625 Z M 4.734375 -2.5625 "/></g></g></g><g fill="#ffffff" fill-opacity="1"><g transform="translate(124.461238, 110.568268)"><g><path d="M 4.71875 0.15625 C 1.820312 0.15625 0.375 -1.304688 0.375 -4.234375 L 0.40625 -5.390625 L 3.890625 -5.390625 L 3.90625 -3.671875 C 3.90625 -3.328125 3.972656 -3.0625 4.109375 -2.875 C 4.242188 -2.695312 4.460938 -2.609375 4.765625 -2.609375 C 5.234375 -2.609375 5.46875 -2.988281 5.46875 -3.75 C 5.46875 -4.3125 5.359375 -4.75 5.140625 -5.0625 C 4.921875 -5.382812 4.570312 -5.726562 4.09375 -6.09375 L 2.234375 -7.53125 C 1.597656 -8.019531 1.140625 -8.523438 0.859375 -9.046875 C 0.578125 -9.578125 0.4375 -10.320312 0.4375 -11.28125 C 0.4375 -12.03125 0.632812 -12.664062 1.03125 -13.1875 C 1.425781 -13.71875 1.945312 -14.113281 2.59375 -14.375 C 3.25 -14.644531 3.972656 -14.78125 4.765625 -14.78125 C 7.609375 -14.78125 9.03125 -13.367188 9.03125 -10.546875 L 9.03125 -10.265625 L 5.40625 -10.265625 L 5.40625 -10.828125 C 5.40625 -11.171875 5.347656 -11.460938 5.234375 -11.703125 C 5.128906 -11.953125 4.941406 -12.078125 4.671875 -12.078125 C 4.429688 -12.078125 4.25 -12.003906 4.125 -11.859375 C 4 -11.722656 3.9375 -11.535156 3.9375 -11.296875 C 3.9375 -10.765625 4.140625 -10.351562 4.546875 -10.0625 L 6.703125 -8.484375 C 7.484375 -7.910156 8.078125 -7.285156 8.484375 -6.609375 C 8.898438 -5.941406 9.109375 -5.097656 9.109375 -4.078125 C 9.109375 -2.710938 8.722656 -1.664062 7.953125 -0.9375 C 7.179688 -0.207031 6.101562 0.15625 4.71875 0.15625 Z M 4.71875 0.15625 "/></g></g></g><g fill="#ffffff" fill-opacity="1"><g transform="translate(133.942366, 110.568268)"><g><path d="M 1.21875 -4.671875 L 0.546875 -17.15625 L 4.03125 -17.15625 L 3.328125 -4.671875 Z M 0.546875 0 L 0.546875 -2.921875 L 4.03125 -2.921875 L 4.03125 0 Z M 0.546875 0 "/></g></g></g></svg>